<?xml version="1.0" standalone="no"?>
<!DOCTYPE svg PUBLIC "-//W3C//DTD SVG 20010904//EN"
 "http://www.w3.org/TR/2001/REC-SVG-20010904/DTD/svg10.dtd">
<svg version="1.0" xmlns="http://www.w3.org/2000/svg"
 width="512.000000pt" height="512.000000pt" viewBox="0 0 512.000000 512.000000"
 preserveAspectRatio="xMidYMid meet">

<g transform="translate(0.000000,512.000000) scale(0.100000,-0.100000)"
fill="#40c1ac" stroke="none">
<path d="M1410 4719 c-84 -38 -143 -111 -160 -198 -16 -85 1 -138 90 -288 44
-75 80 -139 80 -143 0 -10 -99 -54 -193 -84 -146 -48 -278 -68 -479 -73 -209
-6 -349 5 -535 42 -154 31 -167 31 -192 -1 -26 -33 -28 -112 -6 -240 95 -554
548 -1271 965 -1528 41 -25 84 -46 96 -46 42 0 69 40 98 140 15 52 48 147 73
210 58 149 58 200 -2 305 -52 91 -54 96 -45 121 5 13 89 68 224 148 119 71
221 136 226 146 27 51 -5 110 -60 110 -20 0 -98 -40 -242 -126 -117 -69 -220
-133 -229 -141 -15 -13 -24 -2 -97 119 -155 260 -342 577 -342 581 0 2 60 7
133 10 213 10 396 49 577 123 47 19 92 38 101 40 12 4 104 -143 383 -616 l368
-620 -398 -673 c-218 -369 -406 -682 -418 -694 -12 -12 -153 -118 -315 -237
-170 -124 -304 -230 -319 -251 -47 -66 -40 -180 15 -246 25 -29 278 -185 348
-215 19 -8 65 -14 102 -14 75 0 127 19 180 64 18 15 126 153 239 306 203 272
216 293 656 1036 247 418 452 762 456 766 4 3 182 -291 397 -654 l390 -660
306 -224 c169 -124 312 -231 319 -239 6 -7 10 -26 8 -41 -3 -24 -23 -40 -143
-112 -150 -91 -197 -106 -257 -81 -24 10 -82 80 -237 288 -189 255 -227 312
-483 746 -153 259 -289 478 -302 489 -41 31 -101 5 -111 -49 -5 -26 34 -96
282 -515 266 -447 305 -507 494 -761 204 -274 241 -314 312 -344 51 -21 162
-19 213 4 80 37 313 182 337 211 55 65 62 179 15 246 -15 20 -155 131 -334
262 l-308 227 -404 682 -404 683 187 315 c138 233 192 315 202 310 9 -3 157
-89 330 -192 204 -121 317 -193 323 -207 9 -25 7 -30 -45 -121 -62 -109 -61
-148 8 -332 31 -81 63 -179 73 -216 18 -72 47 -107 88 -107 33 0 139 67 240
151 95 80 175 164 291 309 298 370 545 943 545 1265 0 48 -5 68 -21 89 -25 32
-38 32 -192 1 -189 -38 -327 -48 -541 -42 -190 6 -300 21 -441 62 -81 24 -225
85 -225 96 0 4 25 50 56 101 102 168 117 203 117 277 -1 78 -19 126 -71 183
-104 116 -300 118 -399 5 -15 -18 -210 -339 -432 -715 -222 -375 -407 -682
-411 -682 -4 0 -189 307 -411 682 -222 376 -417 697 -432 715 -69 79 -208 107
-307 62z m173 -148 c15 -10 35 -27 42 -39 14 -19 10 -23 -92 -83 -100 -58
-107 -61 -120 -43 -7 10 -13 40 -13 67 0 42 5 54 34 83 28 28 41 34 78 34 25
0 55 -8 71 -19z m2096 -7 c41 -35 57 -91 37 -139 -8 -19 -18 -35 -21 -35 -3 0
-53 27 -110 61 l-104 61 16 24 c38 58 130 72 182 28z m-1756 -535 c115 -193
207 -352 205 -354 -17 -13 -198 -115 -206 -115 -8 0 -108 166 -403 665 l-18
30 102 62 c56 34 104 62 107 63 3 0 99 -158 213 -351z m1593 289 l103 -62 -18
-31 c-294 -498 -395 -665 -403 -665 -7 0 -146 78 -206 116 -4 2 411 704 416
704 2 0 50 -28 108 -62z m181 -399 c170 -76 394 -126 611 -136 72 -3 132 -8
132 -10 0 -4 -186 -321 -342 -580 l-78 -131 -48 31 c-26 18 -181 111 -344 207
-279 165 -296 176 -284 195 6 11 70 118 140 238 71 119 132 217 136 217 5 0
39 -14 77 -31z m-3387 -114 c52 -8 111 -15 131 -15 19 0 43 -6 52 -12 13 -11
586 -969 633 -1060 20 -38 18 -69 -9 -130 -13 -29 -36 -91 -52 -138 -15 -47
-30 -88 -32 -93 -10 -17 -159 112 -261 226 -221 247 -394 530 -515 847 -42
108 -89 277 -101 364 l-5 38 32 -6 c18 -4 75 -13 127 -21z m4654 -12 c-31
-224 -191 -620 -344 -852 -162 -247 -355 -467 -502 -572 -31 -22 -28 -25 -58
66 -13 39 -36 101 -52 139 -32 77 -34 105 -14 144 43 83 619 1049 631 1058 8
6 50 14 92 18 43 4 110 13 148 20 109 21 104 21 99 -21z m-2624 -468 l132
-225 -67 -115 c-37 -63 -70 -117 -74 -119 -6 -4 -323 525 -329 548 -2 9 56 47
204 135 1 1 61 -100 134 -224z m698 149 c45 -27 82 -52 82 -55 0 -4 -307 -526
-683 -1160 l-683 -1154 -205 -276 c-155 -208 -213 -278 -237 -288 -60 -25
-107 -10 -257 81 -125 75 -140 87 -143 114 -2 21 4 36 20 50 13 12 156 118
318 237 l295 215 684 1156 c658 1112 685 1156 705 1143 12 -8 58 -36 104 -63z"/>
</g>
</svg>
