<?xml version="1.0" standalone="no"?>
<!DOCTYPE svg PUBLIC "-//W3C//DTD SVG 20010904//EN"
 "http://www.w3.org/TR/2001/REC-SVG-20010904/DTD/svg10.dtd">
<svg version="1.0" xmlns="http://www.w3.org/2000/svg"
 width="512.000000pt" height="512.000000pt" viewBox="0 0 512.000000 512.000000"
 preserveAspectRatio="xMidYMid meet">

<g transform="translate(0.000000,512.000000) scale(0.100000,-0.100000)"
fill="#000000" stroke="none">
<path d="M1800 5057 c-36 -13 -83 -32 -105 -41 -28 -13 -70 -19 -140 -20 -110
-2 -167 -21 -238 -77 -33 -27 -49 -31 -135 -40 -168 -16 -271 -60 -374 -159
-62 -60 -68 -69 -68 -106 0 -41 28 -85 61 -96 10 -3 0 -19 -33 -51 -27 -25
-48 -54 -48 -63 0 -9 -39 -62 -88 -117 -412 -479 -632 -1064 -632 -1687 0
-1244 901 -2307 2135 -2521 634 -109 1297 32 1838 391 746 496 1178 1337 1144
2225 -24 606 -245 1158 -646 1610 -39 44 -71 88 -71 99 0 10 -21 39 -46 65
-29 28 -41 47 -33 50 32 10 59 51 59 89 0 47 -36 97 -113 156 -93 70 -177 100
-326 115 -76 8 -99 15 -127 36 -19 14 -60 38 -92 53 -48 22 -72 27 -152 28
-85 1 -105 5 -190 39 -115 46 -183 51 -247 17 -62 -32 -86 -72 -154 -247 -56
-145 -61 -164 -57 -221 7 -109 4 -107 484 -413 236 -151 442 -286 457 -300
147 -134 334 -436 416 -672 184 -532 109 -1129 -202 -1599 -499 -756 -1487
-1028 -2305 -635 -402 193 -721 529 -889 935 -265 638 -149 1371 299 1890 72
83 82 90 498 356 234 149 438 281 453 294 43 34 70 96 70 160 0 44 -12 86 -62
213 -67 168 -91 207 -152 238 -62 31 -115 33 -189 6z m155 -317 c49 -126 52
-136 37 -152 -10 -9 -187 -124 -394 -257 l-377 -240 -59 62 c-32 34 -91 97
-130 139 l-72 77 62 58 c83 75 87 82 88 125 0 25 -8 46 -26 67 l-26 31 29 11
c15 6 82 15 147 21 112 11 121 13 160 45 72 59 120 76 185 67 74 -10 73 -10
198 41 60 23 112 42 117 41 4 -1 32 -62 61 -136z m1435 76 c77 -31 91 -33 152
-22 66 11 100 1 164 -51 l57 -46 121 -13 c66 -7 128 -15 136 -17 52 -17 51
-14 20 -46 -23 -22 -30 -39 -30 -68 0 -34 7 -45 76 -111 l76 -72 -113 -123
c-62 -67 -120 -130 -129 -140 -16 -17 -32 -8 -316 174 -164 105 -339 216 -388
248 -48 31 -91 62 -93 69 -5 12 81 246 99 269 7 9 21 8 56 -6 26 -11 76 -31
112 -45z m-2364 -813 l36 -42 -68 -83 c-69 -85 -163 -223 -205 -303 -13 -25
-27 -45 -30 -45 -17 0 -24 373 -11 522 7 73 10 80 47 118 l40 41 78 -83 c43
-46 93 -102 113 -125z m3424 12 c164 -218 287 -462 374 -744 l25 -84 -27 25
c-151 138 -298 255 -430 343 -64 43 -82 62 -139 149 -36 54 -95 134 -130 178
l-64 79 37 42 c21 23 72 79 113 125 l76 83 48 -53 c27 -29 79 -94 117 -143z
m-3899 -425 c5 -80 22 -212 35 -294 l25 -148 -25 -127 c-53 -267 -58 -436 -21
-741 l6 -45 -61 65 c-63 66 -236 290 -283 367 -26 42 -26 42 -16 155 26 288
108 570 242 838 l82 165 2 -45 c2 -25 8 -110 14 -190z m4185 -585 l172 -171 7
-89 c17 -200 -10 -484 -66 -715 -35 -140 -109 -354 -120 -342 -3 4 -12 43 -19
87 -17 110 -72 328 -114 455 l-35 106 10 99 c22 198 -8 509 -67 712 -13 46
-24 86 -24 89 0 15 102 -76 256 -231z m-4332 -889 c45 -49 125 -129 179 -177
97 -87 100 -91 167 -226 105 -213 256 -422 403 -560 65 -61 63 -62 -79 -33
-117 24 -214 50 -347 93 l-98 32 -60 93 c-159 245 -276 543 -329 836 -30 166
-29 168 32 94 29 -35 88 -103 132 -152z m4094 -298 c29 -149 40 -230 51 -362
l9 -109 -48 -72 c-171 -254 -435 -509 -691 -667 -51 -32 -94 -56 -96 -54 -2 1
26 61 61 132 72 145 125 270 167 391 24 71 38 94 101 165 173 195 306 410 389
626 13 34 27 62 30 62 3 0 15 -51 27 -112z m-3487 -889 c116 -25 259 -46 404
-59 116 -10 123 -12 225 -64 198 -102 420 -171 648 -202 l126 -18 -145 -70
c-80 -39 -205 -93 -279 -119 l-134 -48 -90 31 c-136 47 -376 168 -511 258
-113 75 -309 235 -365 297 l-25 28 30 -7 c17 -5 69 -16 116 -27z m2633 -76
c-37 -85 -137 -265 -208 -373 l-63 -96 -106 -33 c-284 -87 -586 -122 -866
-101 -85 6 -158 13 -163 16 -5 3 63 41 149 84 87 43 219 116 293 163 l135 84
135 27 c74 15 189 45 255 67 121 40 350 147 415 193 19 14 38 25 42 26 4 0 -4
-26 -18 -57z"/>
</g>
</svg>
