<?xml version="1.0" standalone="no"?>
<!DOCTYPE svg PUBLIC "-//W3C//DTD SVG 20010904//EN"
 "http://www.w3.org/TR/2001/REC-SVG-20010904/DTD/svg10.dtd">
<svg version="1.0" xmlns="http://www.w3.org/2000/svg"
 width="512.000000pt" height="512.000000pt" viewBox="0 0 512.000000 512.000000"
 preserveAspectRatio="xMidYMid meet">

<g transform="translate(0.000000,512.000000) scale(0.100000,-0.100000)"
fill="#40c1ac" stroke="none">
<path d="M1562 4937 c-82 -82 -82 -83 -82 -135 l0 -52 -140 0 -140 0 0 -315 0
-315 450 0 450 0 0 75 0 75 -375 0 -375 0 0 40 0 40 195 0 195 0 0 75 0 75
-195 0 -195 0 0 50 0 50 140 0 140 0 0 98 0 98 38 37 38 37 327 0 327 0 0 75
0 75 -358 0 -357 0 -83 -83z"/>
<path d="M2490 4897 l0 -123 63 -62 63 -62 59 0 60 0 -1368 -1368 -1367 -1367
205 -205 205 -205 423 423 422 422 383 0 382 0 0 75 0 75 -307 0 -308 0 155
155 155 155 152 0 153 0 0 75 0 75 -77 0 -78 0 155 155 155 155 385 0 385 0
155 -155 155 -155 -78 0 -77 0 0 -75 0 -75 153 0 152 0 155 -155 155 -155
-308 0 -307 0 0 -75 0 -75 382 0 383 0 422 -422 423 -423 205 205 205 205
-1032 1032 -1033 1033 -52 -52 -53 -53 980 -980 980 -980 -100 -100 -100 -100
-980 980 -980 980 -52 -53 -53 -52 75 -75 74 -75 -234 0 -235 0 350 350 350
350 447 0 448 0 0 315 0 315 -140 0 -140 0 0 53 0 52 -83 83 -82 82 -493 0
-492 0 0 -123z m962 -64 l38 -37 0 -98 0 -98 140 0 140 0 0 -50 0 -50 -195 0
-195 0 0 -75 0 -75 195 0 195 0 0 -40 0 -40 -406 0 -407 0 -1273 -1277 -1272
-1278 -101 100 -101 100 1340 1340 1340 1340 0 103 0 102 -103 0 c-110 0 -147
13 -147 51 0 18 10 19 387 19 l387 0 38 -37z"/>
<path d="M2230 4662 l0 -68 68 -67 68 -67 52 53 52 53 -45 44 c-38 37 -45 50
-45 82 l0 38 -75 0 -75 0 0 -68z"/>
<path d="M3545 3080 l-50 -50 53 -53 52 -52 52 52 53 53 -50 50 c-27 27 -52
50 -55 50 -3 0 -28 -23 -55 -50z"/>
<path d="M2420 3092 c-139 -52 -241 -151 -287 -276 -97 -270 74 -560 360 -608
189 -31 395 79 477 254 118 253 -8 540 -276 632 -64 22 -213 20 -274 -2z m277
-160 c122 -63 188 -200 162 -335 -37 -189 -246 -297 -421 -219 -252 111 -240
472 19 568 57 21 187 13 240 -14z"/>
<path d="M3725 2900 l-50 -50 53 -53 52 -52 52 52 53 53 -50 50 c-27 27 -52
50 -55 50 -3 0 -28 -23 -55 -50z"/>
<path d="M3902 2727 l-52 -52 405 -405 405 -405 52 53 53 52 -405 405 -405
405 -53 -53z"/>
<path d="M1220 1975 l0 -75 335 0 335 0 0 75 0 75 -335 0 -335 0 0 -75z"/>
<path d="M2020 1430 l0 -620 75 0 75 0 0 545 0 545 390 0 390 0 0 -545 0 -545
75 0 75 0 0 620 0 620 -540 0 -540 0 0 -620z"/>
<path d="M3230 1975 l0 -75 335 0 335 0 0 75 0 75 -335 0 -335 0 0 -75z"/>
<path d="M996 1915 l-46 -57 25 -29 c47 -57 42 -139 -13 -194 -53 -53 -126
-61 -187 -20 -41 29 -43 28 -115 -33 -34 -29 -34 -31 -18 -49 17 -19 17 -20
-5 -41 -43 -40 -71 -111 -75 -189 -5 -84 7 -124 55 -194 l35 -51 -21 -27 c-12
-14 -33 -48 -46 -76 -29 -59 -34 -158 -10 -225 8 -23 15 -44 15 -46 0 -2 -41
-4 -90 -4 l-90 0 2 -287 3 -288 2165 0 2165 0 3 288 2 287 -110 0 c-60 0 -110
2 -110 4 0 2 7 23 15 46 24 67 19 166 -10 225 -13 28 -34 62 -46 76 l-21 27
35 51 c48 70 60 110 55 194 -4 78 -32 149 -75 189 -22 21 -22 22 -5 41 16 18
16 20 -18 49 -72 61 -74 62 -115 33 -61 -41 -134 -33 -187 20 -55 55 -60 137
-13 194 l25 29 -46 57 c-25 31 -51 54 -57 52 -26 -8 -78 -98 -94 -161 -15 -61
-15 -71 0 -132 10 -41 31 -86 53 -116 l36 -50 -26 -27 c-43 -45 -70 -118 -70
-191 0 -80 16 -127 60 -186 l34 -45 -29 -37 c-75 -93 -87 -202 -36 -324 7 -17
-65 -18 -1435 -18 -1370 0 -1442 1 -1435 18 51 122 39 231 -36 324 l-29 37 34
45 c44 59 60 106 60 186 0 73 -27 146 -70 191 l-26 27 36 50 c22 30 43 75 53
116 15 61 15 71 0 132 -16 63 -68 153 -94 161 -6 2 -32 -21 -57 -52z m-57
-502 c48 -37 66 -71 66 -127 -1 -89 -61 -148 -151 -148 -84 0 -144 62 -144
148 0 64 28 109 83 135 50 23 108 20 146 -8z m3388 7 c107 -48 113 -204 11
-265 -36 -21 -106 -22 -146 -1 -88 46 -106 170 -34 239 52 50 102 58 169 27z
m-3386 -463 c20 -14 41 -40 53 -69 26 -62 16 -110 -33 -159 -49 -49 -97 -59
-159 -33 -64 27 -92 70 -92 142 0 51 3 57 44 98 41 41 47 44 98 44 41 0 64 -6
89 -23z m3425 -21 c41 -41 44 -47 44 -98 0 -72 -28 -115 -92 -142 -62 -26
-110 -16 -159 33 -49 49 -59 97 -33 159 27 64 70 92 142 92 51 0 57 -3 98 -44z
m224 -546 l0 -140 -2010 0 -2010 0 0 140 0 140 2010 0 2010 0 0 -140z"/>
<path d="M3360 395 l0 -75 75 0 75 0 0 75 0 75 -75 0 -75 0 0 -75z"/>
<path d="M3610 395 l0 -75 75 0 75 0 0 75 0 75 -75 0 -75 0 0 -75z"/>
<path d="M3860 395 l0 -75 320 0 320 0 0 75 0 75 -320 0 -320 0 0 -75z"/>
<path d="M3170 1745 l0 -75 75 0 75 0 0 75 0 75 -75 0 -75 0 0 -75z"/>
<path d="M3420 1745 l0 -75 75 0 75 0 0 75 0 75 -75 0 -75 0 0 -75z"/>
<path d="M3670 1745 l0 -75 115 0 115 0 0 75 0 75 -115 0 -115 0 0 -75z"/>
<path d="M1220 1515 l0 -75 335 0 335 0 0 75 0 75 -335 0 -335 0 0 -75z"/>
<path d="M3230 1515 l0 -75 335 0 335 0 0 75 0 75 -335 0 -335 0 0 -75z"/>
<path d="M1220 1055 l0 -75 335 0 335 0 0 75 0 75 -335 0 -335 0 0 -75z"/>
<path d="M3230 1055 l0 -75 335 0 335 0 0 75 0 75 -335 0 -335 0 0 -75z"/>
</g>
</svg>
