<?xml version="1.0" standalone="no"?>
<!DOCTYPE svg PUBLIC "-//W3C//DTD SVG 20010904//EN"
 "http://www.w3.org/TR/2001/REC-SVG-20010904/DTD/svg10.dtd">
<svg version="1.0" xmlns="http://www.w3.org/2000/svg"
 width="512.000000pt" height="512.000000pt" viewBox="0 0 512.000000 512.000000"
 preserveAspectRatio="xMidYMid meet">

<g transform="translate(0.000000,512.000000) scale(0.100000,-0.100000)"
fill="#000000" stroke="none">
<path d="M2548 4560 c-20 -11 -47 -36 -60 -57 -22 -37 -23 -44 -23 -278 0
-224 1 -242 21 -275 11 -19 35 -45 54 -57 l33 -23 1215 0 1215 0 34 21 c18 12
43 39 54 61 19 37 20 55 17 283 -3 268 -3 268 -72 319 -27 21 -33 21 -1239 23
-1182 2 -1213 2 -1249 -17z m2412 -335 l0 -205 -1170 0 -1170 0 0 205 0 205
1170 0 1170 0 0 -205z"/>
<path d="M4050 4225 l0 -75 75 0 75 0 0 75 0 75 -75 0 -75 0 0 -75z"/>
<path d="M4300 4225 l0 -75 75 0 75 0 0 75 0 75 -75 0 -75 0 0 -75z"/>
<path d="M4550 4225 l0 -75 150 0 150 0 0 75 0 75 -150 0 -150 0 0 -75z"/>
<path d="M2635 3725 c-2 -11 -11 -78 -20 -148 -19 -147 -66 -343 -120 -497
-38 -109 -153 -358 -205 -441 l-30 -49 43 -26 c23 -14 52 -32 64 -40 21 -13
24 -11 61 54 186 318 323 743 349 1079 l6 81 -72 4 c-65 3 -72 1 -76 -17z"/>
<path d="M4787 3733 c-4 -3 -7 -23 -7 -44 0 -56 -27 -259 -51 -379 -76 -386
-232 -779 -440 -1107 -179 -284 -462 -603 -701 -791 -32 -25 -58 -48 -58 -52
0 -3 20 -32 43 -62 l44 -56 104 86 c382 315 736 786 932 1242 149 345 253 752
274 1077 l6 93 -70 0 c-38 0 -73 -3 -76 -7z"/>
<path d="M4496 3605 c-4 -38 -3 -72 1 -76 4 -4 38 -10 74 -14 l67 -7 7 72 c4
39 6 73 4 75 -2 2 -36 6 -75 10 l-71 7 -7 -67z"/>
<path d="M4462 3374 c-19 -91 -20 -89 53 -103 37 -8 69 -11 72 -8 4 5 32 119
33 138 0 4 -24 10 -52 13 -29 4 -62 9 -74 12 -19 5 -22 -1 -32 -52z"/>
<path d="M4391 3088 c-164 -544 -491 -1046 -919 -1413 -90 -76 -89 -71 -25
-144 l39 -44 74 64 c457 391 783 885 964 1458 20 63 36 122 36 131 0 11 -19
21 -64 33 -35 9 -67 17 -69 17 -3 0 -19 -46 -36 -102z"/>
<path d="M2030 2484 c-18 -8 -92 -72 -163 -142 -178 -175 -206 -239 -152 -348
37 -74 1254 -1286 1309 -1304 59 -19 137 -7 188 28 64 44 266 256 283 296 17
41 20 123 4 163 -15 42 -1254 1281 -1304 1304 -48 22 -117 24 -165 3z m717
-746 c482 -482 613 -618 613 -638 0 -36 -234 -270 -270 -270 -36 0 -1250 1214
-1250 1250 0 35 236 270 270 270 20 0 160 -135 637 -612z"/>
<path d="M2127 2072 c-26 -26 -47 -52 -47 -58 0 -5 23 -32 50 -59 l50 -50 53
53 52 52 -55 55 -55 55 -48 -48z"/>
<path d="M2335 1850 l-50 -50 53 -53 52 -52 52 52 53 53 -50 50 c-27 27 -52
50 -55 50 -3 0 -28 -23 -55 -50z"/>
<path d="M2545 1640 l-50 -50 53 -53 52 -52 52 52 53 53 -50 50 c-27 27 -52
50 -55 50 -3 0 -28 -23 -55 -50z"/>
<path d="M2762 1427 l-52 -53 53 -52 53 -52 52 53 52 53 -53 52 -53 52 -52
-53z"/>
<path d="M2972 1217 l-52 -53 53 -52 53 -52 52 53 52 53 -53 52 -53 52 -52
-53z"/>
<path d="M1560 1841 c-304 -224 -696 -382 -1122 -452 -179 -29 -268 -71 -341
-162 -66 -81 -90 -142 -95 -243 l-4 -90 103 -48 c338 -157 694 -255 1081 -298
148 -16 572 -16 713 1 140 16 353 55 475 86 107 27 350 103 350 110 0 10 -43
121 -50 128 -4 5 -57 -8 -116 -28 -739 -250 -1597 -211 -2316 104 l-96 42 8
31 c23 79 96 161 170 190 14 5 90 21 170 34 318 54 601 149 865 292 193 104
370 226 358 246 -21 33 -77 106 -82 106 -3 -1 -35 -22 -71 -49z"/>
<path d="M2311 1059 c-35 -10 -65 -20 -67 -22 -5 -5 23 -127 31 -135 5 -5 135
24 143 32 1 2 -8 35 -20 73 l-23 70 -64 -18z"/>
<path d="M665 1005 c-9 -36 -15 -68 -12 -71 23 -23 397 -95 594 -115 122 -12
587 -7 646 7 27 6 28 8 22 53 -13 98 -15 103 -38 96 -45 -13 -502 -18 -622 -6
-145 14 -316 44 -447 77 -53 13 -103 24 -111 24 -9 0 -20 -24 -32 -65z"/>
<path d="M2090 1008 c-92 -16 -93 -16 -87 -51 3 -18 9 -51 12 -73 l6 -41 71
13 c39 7 73 16 75 18 5 5 -17 115 -26 132 -4 6 -22 7 -51 2z"/>
</g>
</svg>
