<?xml version="1.0" standalone="no"?>
<!DOCTYPE svg PUBLIC "-//W3C//DTD SVG 20010904//EN"
 "http://www.w3.org/TR/2001/REC-SVG-20010904/DTD/svg10.dtd">
<svg version="1.0" xmlns="http://www.w3.org/2000/svg"
 width="512.000000pt" height="512.000000pt" viewBox="0 0 512.000000 512.000000"
 preserveAspectRatio="xMidYMid meet">

<g transform="translate(0.000000,512.000000) scale(0.100000,-0.100000)"
fill="#40c1ac" stroke="none">
<path d="M2215 5109 c-420 -54 -856 -234 -1212 -500 -126 -94 -398 -366 -492
-492 -274 -367 -451 -803 -502 -1239 -7 -61 -9 -199 -6 -370 5 -333 25 -459
114 -733 281 -869 1011 -1523 1913 -1714 193 -40 359 -54 590 -48 281 8 510
47 756 131 643 219 1176 689 1475 1300 167 344 245 658 256 1043 14 463 -79
872 -287 1271 -382 728 -1087 1225 -1911 1346 -119 18 -569 21 -694 5z m263
-405 l2 -271 -121 -13 -121 -12 -100 98 c-55 55 -117 119 -138 144 l-38 45 99
125 c92 117 101 126 141 133 51 9 224 25 253 23 19 -1 20 -9 23 -272z m412
251 c83 -10 228 -41 332 -71 90 -26 248 -82 248 -89 0 -5 -230 -479 -235 -484
-3 -2 -58 12 -122 32 -105 32 -158 44 -321 74 l-43 8 103 85 c171 141 188 158
188 194 -1 40 -4 45 -142 160 -65 54 -118 100 -118 103 0 2 12 2 28 -1 15 -3
52 -8 82 -11z m-977 -79 c-66 -89 -399 -505 -404 -506 -3 0 -47 59 -98 130
-72 101 -91 133 -82 144 16 20 262 140 361 176 66 25 218 75 238 79 2 1 -5
-10 -15 -23z m900 -138 l39 -33 -111 -93 -111 -93 0 186 0 186 73 -60 c39 -33
89 -75 110 -93z m876 -44 c82 -45 213 -126 209 -129 -2 -1 -87 -6 -191 -10
l-187 -7 42 91 c24 49 47 90 52 91 5 0 39 -16 75 -36z m-1629 -324 c0 -3 -47
-20 -103 -38 -56 -18 -153 -57 -214 -87 -112 -53 -113 -53 -128 -33 -8 12 -11
26 -8 32 4 6 63 82 132 169 l125 158 98 -98 c54 -54 98 -100 98 -103z m-713
-41 c84 -118 151 -217 150 -221 -1 -4 -36 -32 -77 -63 -103 -76 -258 -231
-342 -343 -46 -59 -75 -89 -82 -84 -6 5 -33 26 -61 47 -27 22 -51 40 -53 41
-3 2 90 605 104 676 4 19 31 47 97 97 51 39 97 69 102 68 6 -2 79 -100 162
-218z m2854 -6 l100 -98 -112 -120 c-62 -66 -146 -155 -187 -199 l-74 -78 -62
59 c-130 126 -276 235 -418 312 l-77 42 34 71 c19 39 37 73 40 76 5 6 417 28
567 31 l88 1 101 -97z m-1366 -67 c371 -68 676 -227 932 -487 322 -327 493
-742 493 -1199 0 -659 -362 -1241 -957 -1539 -367 -183 -826 -222 -1228 -106
-468 136 -874 484 -1073 920 -106 234 -149 411 -159 665 -14 374 95 739 315
1050 86 122 280 316 402 402 226 160 487 263 761 303 126 17 396 13 514 -9z
m-2058 -234 c-18 -111 -34 -202 -37 -202 -4 0 -153 110 -167 124 -1 1 26 38
60 82 68 88 169 206 173 202 1 -2 -12 -94 -29 -206z m3675 28 c81 -99 238
-346 238 -373 0 -4 -106 46 -235 110 -129 65 -235 121 -235 125 0 10 174 197
181 195 4 -1 27 -27 51 -57z m-3742 -402 c116 -88 210 -165 210 -170 0 -5 -15
-39 -34 -76 -53 -107 -104 -242 -135 -359 l-28 -108 -76 152 c-81 161 -106
190 -152 179 -14 -4 -91 -65 -170 -137 -80 -71 -145 -125 -145 -120 0 30 77
306 109 393 66 177 181 408 203 408 5 0 103 -73 218 -162z m3585 50 c102 -51
185 -96 185 -101 0 -4 -46 -77 -103 -161 l-103 -154 -54 109 c-44 89 -105 190
-185 304 -7 11 1 25 30 55 21 22 40 40 42 40 2 0 86 -42 188 -92z m420 -210
l85 -42 34 -106 c67 -200 107 -403 121 -603 l7 -97 -274 2 -273 3 -3 40 c-5
79 -33 251 -54 335 l-21 85 144 213 c79 116 144 212 146 212 1 0 41 -19 88
-42z m-4169 -529 c30 -61 53 -113 50 -116 -8 -9 -326 19 -326 28 0 7 209 199
217 199 1 0 28 -50 59 -111z m-108 -261 l252 -21 0 -94 0 -93 -27 1 c-16 0
-138 10 -273 22 l-245 22 -3 79 c-3 91 0 106 25 106 10 0 132 -10 271 -22z
m4519 -275 c-4 -38 -7 -80 -7 -95 0 -23 -17 -37 -142 -115 -79 -49 -148 -92
-154 -96 -6 -4 -48 60 -104 161 -52 92 -100 177 -108 190 l-14 22 267 0 268 0
-6 -67z m-4454 -70 c185 -15 198 -18 202 -37 2 -12 12 -61 21 -111 9 -49 32
-137 50 -195 18 -57 31 -106 30 -108 -2 -2 -68 33 -146 77 -141 80 -173 91
-211 71 -11 -6 -52 -77 -93 -158 l-73 -147 -26 85 c-52 173 -89 344 -103 484
l-7 69 79 -6 c44 -4 168 -14 277 -24z m4079 -412 c35 -20 58 -11 201 79 71 44
130 80 131 80 5 0 -23 -119 -51 -215 -29 -99 -75 -224 -123 -328 l-31 -68 -32
23 c-79 56 -403 291 -410 298 -5 4 8 51 28 105 20 53 47 144 62 203 14 59 27
113 30 121 2 8 41 -53 87 -135 50 -89 94 -155 108 -163z m-3866 -167 c102 -58
184 -108 182 -109 -12 -12 -441 -265 -449 -265 -5 0 -28 37 -50 83 l-42 83 83
157 c45 86 84 157 86 157 2 0 88 -48 190 -106z m3695 -256 c116 -83 212 -155
215 -160 5 -8 -83 -158 -93 -158 -4 0 -112 78 -390 282 l-53 38 47 75 c25 41
50 75 55 75 6 0 104 -68 219 -152z m-3349 -65 c37 -49 104 -128 150 -178 l84
-90 -12 -235 c-7 -129 -13 -244 -13 -256 -1 -19 -9 -22 -96 -28 l-96 -6 -72
58 c-96 79 -288 278 -363 377 -82 108 -118 164 -111 172 10 9 451 273 458 273
3 0 35 -39 71 -87z m3191 -238 c59 -43 106 -80 104 -82 -6 -6 -249 -53 -275
-53 -20 0 -23 4 -18 28 3 15 8 73 12 130 l6 103 32 -24 c17 -13 80 -59 139
-102z m-336 -73 c-18 -264 -31 -257 320 -189 l121 24 -45 -53 c-79 -91 -282
-267 -402 -347 l-55 -36 -138 231 c-76 127 -137 234 -136 238 2 4 41 36 88 71
47 35 123 101 170 146 47 45 86 80 87 79 1 -1 -3 -74 -10 -164z m-2397 -123
c77 -51 224 -132 293 -159 62 -26 66 -33 47 -102 -9 -31 -16 -38 -43 -42 -40
-7 -312 -26 -361 -26 l-37 0 6 63 c2 34 8 119 11 189 4 92 9 126 18 121 6 -4
36 -23 66 -44z m1810 -156 c0 -5 -25 -79 -55 -166 -30 -87 -55 -168 -55 -181
0 -29 32 -63 67 -70 15 -3 89 -15 163 -26 74 -12 136 -22 137 -24 6 -5 -138
-67 -237 -101 -122 -43 -221 -70 -342 -93 l-97 -19 -6 51 c-13 117 -44 490
-41 494 3 2 43 12 90 22 93 21 280 81 324 104 30 17 52 20 52 9z m264 -178
c46 -77 81 -141 77 -143 -10 -4 -262 36 -268 42 -5 5 62 216 80 250 8 16 11
17 18 5 4 -8 46 -77 93 -154z m-1462 70 c143 -34 248 -45 424 -45 l152 0 6
-31 c3 -17 6 -55 6 -85 l0 -53 -267 -177 -268 -177 -65 11 c-142 24 -210 44
-210 60 0 15 97 481 105 510 5 15 -4 16 117 -13z m-342 -326 c-15 -72 -30
-132 -32 -134 -14 -14 -457 196 -465 221 -3 10 320 39 468 43 l57 1 -28 -131z
m963 -181 l7 -77 -33 -6 c-17 -3 -92 -5 -166 -3 l-134 3 154 102 c176 117 161
119 172 -19z"/>
<path d="M2385 3739 c-168 -25 -336 -89 -477 -182 -107 -71 -128 -99 -109
-144 14 -35 54 -57 85 -47 11 4 48 26 81 49 104 73 229 129 367 162 54 13 112
18 223 17 129 -1 164 -5 250 -27 368 -97 645 -375 747 -750 19 -70 22 -107 22
-252 0 -142 -4 -183 -22 -247 -103 -373 -377 -647 -750 -750 -64 -18 -105 -22
-247 -22 -145 0 -182 3 -252 22 -304 82 -538 273 -674 547 -76 154 -102 267
-103 450 -1 111 4 169 17 223 33 137 86 258 163 371 65 94 55 161 -25 163 -40
1 -60 -17 -123 -116 -285 -443 -240 -1026 108 -1416 231 -259 543 -400 883
-400 456 0 860 251 1060 658 262 532 87 1180 -407 1505 -239 157 -541 226
-817 186z"/>
<path d="M2415 3040 c-259 -78 -408 -344 -337 -601 60 -214 250 -360 472 -360
141 0 259 48 353 145 48 49 56 80 30 114 -14 19 -31 28 -55 30 -30 3 -44 -4
-93 -47 -79 -70 -147 -94 -250 -89 -133 6 -229 68 -287 186 -30 60 -33 76 -33
152 0 103 27 170 96 239 69 69 136 96 239 96 76 0 92 -3 152 -33 109 -53 171
-142 189 -269 6 -44 16 -75 29 -87 24 -24 74 -25 100 -1 40 37 22 174 -40 295
-28 55 -120 148 -184 185 -108 63 -262 81 -381 45z"/>
</g>
</svg>
