<?xml version="1.0" standalone="no"?>
<!DOCTYPE svg PUBLIC "-//W3C//DTD SVG 20010904//EN"
 "http://www.w3.org/TR/2001/REC-SVG-20010904/DTD/svg10.dtd">
<svg version="1.0" xmlns="http://www.w3.org/2000/svg"
 width="512.000000pt" height="512.000000pt" viewBox="0 0 512.000000 512.000000"
 preserveAspectRatio="xMidYMid meet">

<g transform="translate(0.000000,512.000000) scale(0.100000,-0.100000)"
fill="#40c1ac" stroke="none">
<path d="M2135 4870 c-139 -28 -254 -102 -356 -230 l-36 -44 -64 19 c-86 27
-242 27 -319 1 -96 -32 -172 -79 -240 -147 l-65 -66 -79 -7 c-171 -15 -313
-83 -441 -211 -91 -91 -143 -174 -183 -290 l-27 -80 -3 -500 c-2 -351 0 -518
8 -560 26 -131 126 -259 244 -311 l63 -27 6 -461 c3 -254 11 -522 17 -596 26
-327 61 -610 112 -895 26 -147 36 -184 55 -202 l22 -23 1311 0 1311 0 22 23
c19 18 29 55 55 202 29 165 60 373 77 518 l6 57 272 0 c310 0 368 8 487 66
102 50 213 161 264 265 65 133 66 140 66 869 0 538 -3 668 -15 725 -43 204
-201 379 -405 447 -60 20 -91 23 -390 28 l-325 5 -32 195 c-20 125 -32 233
-33 300 -1 128 -19 220 -61 305 -38 78 -129 180 -200 225 -117 76 -277 106
-411 78 -37 -8 -73 -11 -81 -6 -8 4 -29 33 -46 63 -110 194 -364 309 -586 265z
m269 -188 c83 -39 138 -90 187 -173 70 -120 134 -150 265 -123 104 22 187 14
270 -25 143 -67 234 -216 234 -383 l0 -58 -850 0 c-953 0 -939 1 -1085 -70
-149 -73 -250 -174 -321 -325 -54 -114 -64 -190 -64 -473 0 -302 -6 -329 -84
-408 -114 -113 -278 -113 -392 1 -86 86 -86 79 -82 657 l3 493 26 66 c37 97
71 149 139 217 98 97 207 145 368 161 108 11 135 25 205 105 96 111 255 159
397 121 99 -27 117 -28 167 -15 47 14 80 42 160 137 43 52 130 105 199 123 72
17 187 5 258 -28z m-324 -1082 l0 -160 -263 0 -263 0 18 148 c9 81 17 150 18
154 0 11 56 15 278 16 l212 2 0 -160z m650 153 c0 -5 7 -64 15 -133 8 -69 15
-137 15 -152 l0 -28 -260 0 -260 0 0 160 0 160 245 0 c135 0 245 -3 245 -7z
m645 -15 c9 -42 45 -265 45 -282 0 -15 -23 -16 -247 -14 l-248 3 -12 110 c-6
61 -14 131 -18 158 l-6 47 240 0 241 0 5 -22z m-1969 -188 l-11 -105 -77 -3
c-89 -3 -89 -4 -31 85 31 47 120 139 128 131 2 -1 -2 -50 -9 -108z m2052 -357
c7 -49 15 -121 18 -160 l7 -73 -1142 0 -1141 0 0 160 0 160 1124 0 1123 0 11
-87z m754 76 c163 -35 290 -159 333 -326 22 -85 22 -1321 0 -1406 -43 -165
-157 -279 -322 -322 -44 -11 -119 -15 -316 -15 l-259 0 6 98 c4 53 9 125 12
160 l6 62 197 0 c169 0 202 3 236 19 51 23 93 65 116 116 17 37 19 78 19 586
l0 547 -28 53 c-20 39 -41 62 -77 84 l-48 30 -222 3 -221 3 -12 122 c-7 67
-15 139 -19 160 l-6 37 276 0 c166 0 297 -4 329 -11z m-2878 -506 c-10 -92
-35 -600 -41 -830 l-6 -253 -244 0 -243 0 0 360 0 360 28 6 c199 44 322 167
366 367 6 26 8 27 75 27 l69 0 -4 -37z m746 -523 l0 -560 -317 0 -316 0 6 248
c6 249 33 779 43 840 l5 32 289 0 290 0 0 -560z m744 528 c14 -84 46 -744 46
-940 l0 -148 -315 0 -315 0 0 560 0 560 290 0 289 0 5 -32z m679 -86 c4 -65
10 -317 13 -560 l7 -442 -245 0 -245 0 -6 268 c-6 239 -30 716 -41 815 l-4 37
257 0 258 0 6 -118z m557 98 c19 -19 20 -33 20 -540 0 -507 -1 -521 -20 -540
-19 -19 -33 -20 -198 -20 l-179 0 -6 453 c-4 248 -10 500 -14 560 l-6 107 191
0 c179 0 193 -1 212 -20z m-553 -1317 c-4 -32 -9 -104 -13 -160 l-7 -103
-1327 0 -1328 0 -6 98 c-4 53 -9 125 -12 160 l-6 62 1352 0 1353 0 -6 -57z
m-2173 -455 c3 -18 11 -76 17 -128 6 -52 24 -175 40 -273 16 -97 29 -184 29
-192 0 -13 -35 -15 -238 -15 l-238 0 -32 197 c-29 183 -62 410 -62 433 0 6 92
10 240 10 l239 0 5 -32z m746 -288 l0 -320 -244 0 c-224 0 -245 1 -250 18 -9
27 -63 376 -76 482 -6 52 -13 105 -16 118 l-4 22 295 0 295 0 0 -320z m745
293 c-3 -16 -14 -98 -25 -183 -19 -141 -52 -351 -65 -407 l-5 -23 -245 0 -245
0 0 320 0 320 295 0 295 0 -5 -27z m645 15 c0 -20 -69 -486 -83 -558 l-12 -65
-238 -3 c-214 -2 -237 -1 -237 14 0 9 11 82 24 163 14 80 32 202 41 271 8 69
18 140 21 158 l5 32 239 0 c185 0 240 -3 240 -12z"/>
<path d="M1385 3175 c-50 -49 -15 -135 55 -135 41 0 80 39 80 80 0 41 -39 80
-80 80 -19 0 -40 -9 -55 -25z"/>
<path d="M2105 3175 c-50 -49 -15 -135 55 -135 41 0 80 39 80 80 0 41 -39 80
-80 80 -19 0 -40 -9 -55 -25z"/>
<path d="M2825 3175 c-16 -15 -25 -36 -25 -55 0 -19 9 -40 25 -55 15 -16 36
-25 55 -25 19 0 40 9 55 25 16 15 25 36 25 55 0 19 -9 40 -25 55 -15 16 -36
25 -55 25 -19 0 -40 -9 -55 -25z"/>
<path d="M1305 1415 c-50 -49 -15 -135 55 -135 19 0 40 9 55 25 16 15 25 36
25 55 0 19 -9 40 -25 55 -15 16 -36 25 -55 25 -19 0 -40 -9 -55 -25z"/>
<path d="M2105 1415 c-50 -49 -15 -135 55 -135 19 0 40 9 55 25 16 15 25 36
25 55 0 19 -9 40 -25 55 -15 16 -36 25 -55 25 -19 0 -40 -9 -55 -25z"/>
<path d="M2905 1415 c-50 -49 -15 -135 55 -135 41 0 80 39 80 80 0 41 -39 80
-80 80 -19 0 -40 -9 -55 -25z"/>
</g>
</svg>
