<?xml version="1.0" standalone="no"?>
<!DOCTYPE svg PUBLIC "-//W3C//DTD SVG 20010904//EN"
 "http://www.w3.org/TR/2001/REC-SVG-20010904/DTD/svg10.dtd">
<svg version="1.0" xmlns="http://www.w3.org/2000/svg"
 width="512.000000pt" height="512.000000pt" viewBox="0 0 512.000000 512.000000"
 preserveAspectRatio="xMidYMid meet">

<g transform="translate(0.000000,512.000000) scale(0.100000,-0.100000)"
fill="#40c1ac" stroke="none">
<path d="M817 5100 c-30 -24 -67 -126 -98 -275 -26 -125 -28 -323 -6 -440 64
-328 294 -615 645 -806 62 -33 73 -51 36 -57 -48 -7 -66 -14 -84 -32 -19 -19
-20 -35 -20 -319 0 -165 3 -307 6 -316 17 -43 40 -45 504 -45 l440 0 0 -85 c0
-104 15 -147 59 -165 28 -11 37 -11 66 3 42 20 55 60 55 170 l0 77 140 0 140
0 0 -419 0 -420 -66 -75 c-37 -42 -70 -76 -74 -76 -4 0 -37 34 -74 76 l-66 75
0 197 c0 108 -5 214 -10 234 -19 68 -85 89 -137 44 l-28 -24 0 -249 0 -250 28
-39 c15 -21 76 -93 135 -159 107 -119 109 -120 152 -120 43 0 45 1 152 120 59
66 120 138 135 159 l28 39 3 444 3 443 440 0 c463 0 486 2 503 45 3 9 6 151 6
316 0 284 -1 300 -20 319 -18 18 -36 25 -84 32 -37 6 -26 24 36 57 351 191
581 478 645 806 22 117 20 315 -6 440 -53 252 -99 323 -185 283 -20 -8 -34
-33 -62 -104 -74 -193 -152 -320 -278 -452 -131 -138 -324 -259 -498 -312
l-66 -20 -78 56 c-89 63 -206 122 -321 162 l-80 27 -112 127 c-66 76 -122 130
-136 134 -49 12 -73 -5 -186 -134 -112 -127 -112 -127 -188 -153 -171 -59
-315 -143 -442 -258 -108 -98 -237 -286 -284 -413 -10 -27 -20 -48 -22 -48
-12 0 -97 49 -153 88 -319 223 -468 512 -440 852 5 52 9 97 9 99 1 2 22 -32
49 -75 129 -215 321 -400 525 -506 84 -44 106 -46 141 -15 61 53 37 116 -63
166 -221 112 -447 371 -545 626 -48 125 -58 143 -82 154 -36 16 -58 14 -87 -9z
m3433 -442 c29 -337 -129 -640 -446 -855 -62 -42 -144 -87 -149 -81 -2 2 -13
28 -25 58 -29 74 -79 163 -135 239 l-46 62 32 11 c61 21 229 107 299 154 155
102 324 283 420 451 19 33 37 59 38 58 2 -2 8 -46 12 -97z m-1616 -225 l66
-77 0 -418 0 -418 -140 0 -140 0 0 418 0 418 66 77 c37 42 70 77 74 77 4 0 37
-35 74 -77z m-394 -538 l0 -375 -325 0 c-179 0 -325 3 -325 8 0 4 9 40 20 81
61 217 211 420 405 547 67 44 199 111 223 114 1 0 2 -169 2 -375z m823 287
c188 -113 329 -273 410 -467 21 -51 57 -169 57 -189 0 -3 -42 -6 -94 -6 -115
0 -143 -9 -161 -54 -16 -39 -12 -60 18 -93 20 -22 27 -23 194 -23 l173 0 0
-185 0 -185 -1100 0 -1100 0 0 185 0 185 829 0 828 0 27 26 c35 36 34 77 -3
115 -29 29 -31 29 -145 29 l-116 0 0 375 0 375 53 -21 c28 -11 87 -41 130 -67z"/>
<path d="M1030 2673 c-22 -8 -63 -48 -141 -136 -81 -90 -84 -108 -39 -197 17
-33 30 -64 30 -70 0 -6 -33 -10 -83 -10 -103 0 -216 28 -310 75 -111 56 -146
46 -197 -55 -177 -352 -78 -789 235 -1035 173 -137 397 -200 614 -175 152 18
172 41 151 174 -8 53 -11 118 -7 173 6 83 26 172 39 176 4 1 37 -34 74 -78 37
-44 154 -167 259 -273 180 -182 193 -192 228 -192 50 0 87 36 87 83 0 31 -17
52 -188 223 -103 104 -223 232 -267 284 -43 52 -85 103 -93 112 -12 15 -10 21
25 58 l38 41 65 -78 c96 -114 436 -454 581 -579 383 -332 813 -621 1247 -838
61 -31 112 -60 112 -64 -1 -4 -20 -28 -43 -55 l-42 -47 -155 86 c-351 194
-709 432 -1003 666 -54 43 -110 81 -124 84 -33 9 -72 -12 -92 -48 -23 -40 -6
-73 67 -135 l62 -53 -52 -34 c-115 -73 -283 -165 -483 -266 -279 -140 -278
-135 -110 -332 103 -121 144 -158 176 -158 43 0 426 211 693 382 78 50 149 95
159 102 12 8 22 8 35 0 9 -7 80 -52 158 -102 269 -172 650 -382 694 -382 30 0
77 43 179 162 163 191 164 189 -114 328 -201 101 -368 193 -483 267 l-53 33
148 124 c187 155 435 394 576 556 60 69 111 125 114 125 3 0 12 -20 20 -45 22
-71 28 -211 13 -306 -21 -133 -1 -156 151 -174 161 -19 313 8 464 81 375 181
563 627 430 1018 -27 82 -61 149 -88 179 -29 32 -73 28 -154 -13 -94 -47 -207
-75 -310 -75 -50 0 -83 4 -83 10 0 6 13 37 30 70 44 87 41 107 -29 187 -118
136 -155 162 -205 144 -24 -10 -43 -36 -140 -190 l-28 -43 -25 23 c-13 13 -45
52 -69 86 -48 67 -69 83 -106 83 -60 0 -213 -136 -296 -263 -53 -81 -112 -219
-112 -260 0 -35 35 -74 78 -87 59 -19 152 -62 152 -71 0 -9 -175 -205 -284
-317 -144 -149 -620 -562 -646 -562 -12 0 -250 197 -405 336 -189 170 -261
241 -424 424 l-112 124 48 22 c27 11 72 29 101 38 66 22 96 58 89 106 -7 53
-64 183 -111 253 -79 119 -237 257 -294 257 -37 0 -58 -16 -106 -83 -24 -34
-56 -73 -69 -86 l-25 -23 -28 43 c-96 153 -116 180 -140 189 -28 11 -32 11
-54 3z m50 -284 c17 -28 30 -52 28 -54 -6 -5 -47 -25 -51 -25 -2 0 -14 22 -27
50 -19 41 -21 52 -10 65 19 23 26 19 60 -36z m3020 36 c11 -13 9 -24 -10 -65
-13 -28 -25 -50 -27 -50 -4 0 -45 20 -51 25 -5 5 59 105 68 105 4 0 13 -7 20
-15z m-2570 -57 c50 -51 130 -172 130 -196 0 -7 -24 -23 -53 -36 -98 -43 -185
-106 -271 -197 -70 -73 -95 -108 -136 -192 -68 -139 -82 -195 -87 -364 l-5
-143 -37 -1 c-121 -5 -205 13 -318 67 -204 98 -342 288 -374 515 -13 95 -3
197 28 297 13 40 21 51 32 46 129 -50 202 -67 317 -72 257 -10 461 70 634 248
41 43 78 78 82 79 4 0 30 -23 58 -51z m2196 -27 c182 -181 381 -259 638 -249
115 5 188 22 317 72 19 8 43 -63 60 -178 40 -271 -116 -556 -373 -680 -114
-54 -197 -72 -320 -67 l-38 1 0 114 c0 64 -7 147 -15 186 -56 265 -235 487
-481 596 -30 13 -54 29 -54 36 0 24 80 145 130 196 28 28 53 52 54 52 2 0 39
-35 82 -79z m-63 -632 c-148 -189 -467 -502 -732 -718 l-123 -102 -27 18 c-15
10 -38 26 -51 35 -29 21 -39 9 115 133 234 189 505 449 705 678 l85 97 38 -40
38 -40 -48 -61z m-1276 -1090 c23 -17 22 -17 -110 -101 -137 -88 -263 -162
-452 -266 l-110 -61 -42 47 c-23 26 -42 50 -43 54 0 4 76 45 168 93 92 48 244
133 337 189 l170 102 30 -20 c17 -11 40 -27 52 -37z"/>
</g>
</svg>
