<?xml version="1.0" standalone="no"?>
<!DOCTYPE svg PUBLIC "-//W3C//DTD SVG 20010904//EN"
 "http://www.w3.org/TR/2001/REC-SVG-20010904/DTD/svg10.dtd">
<svg version="1.0" xmlns="http://www.w3.org/2000/svg"
 width="512.000000pt" height="512.000000pt" viewBox="0 0 512.000000 512.000000"
 preserveAspectRatio="xMidYMid meet">

<g transform="translate(0.000000,512.000000) scale(0.100000,-0.100000)"
fill="#000000" stroke="none">
<path d="M2110 4945 c0 -132 -3 -176 -12 -179 -673 -183 -1174 -649 -1387
-1291 -93 -281 -104 -397 -98 -1125 4 -629 3 -619 68 -816 65 -200 165 -360
324 -520 262 -264 554 -389 943 -401 l162 -6 0 -81 0 -81 223 -223 222 -222
228 228 227 227 0 76 0 76 168 6 c189 7 264 20 419 72 198 66 349 161 509 320
201 199 311 401 380 695 15 66 18 147 21 650 3 377 1 615 -7 690 -60 629 -412
1186 -954 1510 -146 88 -295 149 -523 216 -10 2 -13 47 -13 179 l0 175 -450 0
-450 0 0 -175z m600 -1300 c0 -646 -4 -1175 -8 -1175 -4 0 -38 -25 -75 -55
l-67 -55 -67 55 c-37 30 -71 55 -75 55 -4 0 -8 529 -8 1175 l0 1175 150 0 150
0 0 -1175z m-600 -98 l0 -914 -82 24 c-161 47 -242 53 -697 53 l-424 0 6 173
c3 94 13 211 22 260 73 399 285 757 598 1010 111 90 178 133 300 194 69 35
245 107 275 113 1 0 2 -411 2 -913z m1175 801 c393 -196 703 -554 840 -972 59
-181 85 -346 85 -548 l0 -117 -467 -4 c-498 -4 -505 -5 -685 -60 l-48 -15 0
914 0 913 88 -30 c48 -17 132 -53 187 -81z m-1374 -1970 c236 -64 413 -184
607 -412 l42 -49 42 49 c194 228 371 348 607 412 96 26 97 26 549 30 l452 3 0
-263 c0 -339 -16 -442 -99 -632 -98 -223 -335 -444 -574 -534 -161 -60 -193
-64 -524 -69 l-303 -5 0 -167 0 -167 -75 -74 -75 -74 -75 74 -75 74 0 168 0
168 -262 0 c-301 0 -394 11 -543 64 -300 107 -538 351 -638 653 -49 148 -57
223 -57 524 l0 260 453 -3 c451 -4 452 -4 548 -30z"/>
<path d="M1510 3760 l0 -150 150 0 150 0 0 150 0 150 -150 0 -150 0 0 -150z"/>
<path d="M1510 3160 l0 -150 150 0 150 0 0 150 0 150 -150 0 -150 0 0 -150z"/>
<path d="M3310 3760 l0 -150 150 0 150 0 0 150 0 150 -150 0 -150 0 0 -150z"/>
<path d="M3310 3160 l0 -150 150 0 150 0 0 150 0 150 -150 0 -150 0 0 -150z"/>
<path d="M1210 2000 c0 -234 65 -405 213 -559 66 -68 161 -135 241 -170 114
-49 145 -54 455 -58 l294 -5 -6 144 c-8 189 -35 284 -119 416 -75 117 -225
240 -354 291 -109 42 -189 51 -464 51 l-260 0 0 -110z m557 -204 c77 -21 136
-52 192 -102 49 -44 103 -119 116 -161 6 -23 5 -23 -74 -23 -145 0 -252 37
-342 117 -47 43 -101 119 -114 161 -6 22 -5 22 82 22 48 0 112 -7 140 -14z"/>
<path d="M3310 2095 c-145 -31 -264 -96 -373 -202 -156 -152 -227 -332 -227
-573 l0 -110 253 0 c262 0 340 7 441 41 182 61 364 230 445 413 39 89 52 159
58 304 l6 142 -269 -1 c-189 0 -288 -5 -334 -14z m270 -291 c0 -23 -71 -131
-110 -168 -92 -86 -204 -126 -351 -126 -79 0 -80 0 -74 23 13 41 67 117 114
160 53 47 123 85 191 103 46 13 230 19 230 8z"/>
</g>
</svg>
