<?xml version="1.0" standalone="no"?>
<!DOCTYPE svg PUBLIC "-//W3C//DTD SVG 20010904//EN"
 "http://www.w3.org/TR/2001/REC-SVG-20010904/DTD/svg10.dtd">
<svg version="1.0" xmlns="http://www.w3.org/2000/svg"
 width="512.000000pt" height="512.000000pt" viewBox="0 0 512.000000 512.000000"
 preserveAspectRatio="xMidYMid meet">

<g transform="translate(0.000000,512.000000) scale(0.100000,-0.100000)"
fill="#40c1ac" stroke="none">
<path d="M2500 5109 c-50 -15 -94 -52 -116 -96 -17 -35 -19 -69 -22 -385 l-4
-348 -502 0 c-485 0 -504 -1 -528 -20 -29 -22 -109 -200 -110 -243 -2 -58 79
-94 120 -53 9 9 31 49 47 89 l31 72 223 3 c210 2 223 1 216 -15 -4 -10 -24
-70 -45 -133 -150 -446 -142 -976 21 -1474 21 -65 39 -121 39 -123 0 -1 -100
-3 -223 -3 l-223 0 -31 88 c-66 181 -107 346 -135 537 -17 117 -16 454 1 573
11 83 11 95 -3 117 -29 44 -93 45 -121 2 -33 -53 -54 -389 -36 -587 15 -165
36 -287 76 -445 42 -166 122 -383 151 -412 l23 -23 506 0 505 0 0 -355 0 -354
-43 -30 c-82 -56 -144 -141 -172 -236 l-12 -40 -85 -3 -84 -3 -17 55 c-79 250
-369 375 -602 259 -106 -53 -196 -156 -225 -257 -14 -51 -18 -53 -97 -32 -281
75 -469 337 -450 630 8 115 25 180 104 394 84 228 97 282 97 422 1 105 -2 120
-27 175 -124 267 -484 277 -599 17 -61 -138 11 -309 151 -357 24 -8 56 -15 71
-15 58 0 93 86 51 124 -10 9 -35 22 -56 27 -91 25 -117 123 -54 203 86 110
268 57 309 -89 25 -89 -7 -276 -74 -432 -44 -104 -102 -198 -253 -415 -145
-208 -191 -290 -233 -415 -111 -333 -63 -697 132 -993 58 -88 204 -238 291
-298 129 -89 266 -149 422 -185 88 -21 112 -21 1381 -24 l1290 -4 27 21 c31
24 37 73 13 106 -14 19 -42 19 -1313 25 -1195 5 -1304 6 -1373 23 -341 80
-616 327 -726 650 -13 38 -24 72 -24 74 0 3 22 -24 49 -59 168 -223 404 -371
691 -436 68 -15 214 -17 1560 -20 998 -3 1521 -1 1596 7 192 18 340 67 507
167 92 55 257 207 312 288 21 30 40 54 42 52 6 -6 -43 -140 -72 -197 -78 -156
-218 -308 -366 -399 -142 -87 -281 -131 -468 -147 -62 -5 -89 -12 -102 -25
-24 -24 -24 -70 0 -100 18 -22 26 -24 97 -22 218 5 457 89 634 222 86 65 214
199 268 281 195 295 243 660 132 993 -42 125 -88 207 -233 415 -151 217 -175
256 -225 357 -52 105 -78 185 -97 291 -19 110 -19 160 0 215 59 167 289 177
334 14 18 -66 -17 -125 -86 -144 -49 -14 -73 -38 -73 -76 0 -48 38 -79 88 -73
169 23 274 213 204 370 -115 260 -474 250 -599 -17 -26 -55 -28 -69 -27 -175
1 -138 13 -192 94 -417 83 -227 100 -292 107 -399 19 -290 -170 -555 -447
-629 -82 -22 -86 -21 -100 31 -40 140 -178 262 -335 294 -206 42 -427 -91
-492 -296 l-17 -55 -84 3 -85 3 -12 40 c-29 96 -82 170 -172 237 l-53 39 0
349 0 350 615 0 616 0 24 25 c30 30 31 49 4 117 -76 189 -137 413 -166 607
-21 144 -23 465 -4 601 26 186 95 421 166 560 31 62 31 85 0 115 l-24 25 -611
0 -610 0 0 30 c0 33 -30 22 400 150 271 80 285 86 299 116 15 34 14 47 -8 75
-15 20 -80 43 -354 124 l-335 100 -10 67 c-6 39 -19 80 -32 98 -41 58 -146 90
-220 69z m98 -486 l2 -343 -40 0 -40 0 0 338 c0 186 3 342 7 346 4 4 21 6 38
4 l30 -3 3 -342z m348 42 c88 -26 162 -50 166 -54 6 -5 -185 -67 -334 -108
-16 -5 -18 5 -18 107 0 91 3 111 14 107 7 -3 85 -27 172 -52z m-411 -552 c-4
-10 -24 -70 -45 -133 -150 -446 -142 -976 21 -1474 21 -65 39 -121 39 -123 0
-1 -116 -3 -259 -3 l-258 0 -46 138 c-158 466 -177 902 -61 1331 23 86 71 218
95 263 9 17 28 18 265 18 240 0 256 -1 249 -17z m680 0 c-4 -10 -24 -70 -45
-133 -150 -446 -142 -976 21 -1474 21 -65 39 -121 39 -123 0 -1 -116 -3 -259
-3 l-258 0 -46 138 c-158 466 -177 902 -61 1331 23 86 71 218 95 263 9 17 28
18 265 18 240 0 256 -1 249 -17z m610 0 c-4 -10 -24 -70 -45 -133 -150 -446
-142 -976 21 -1474 21 -65 39 -121 39 -123 0 -1 -101 -3 -224 -3 l-223 0 -46
138 c-158 466 -177 902 -61 1331 23 86 71 218 95 263 9 17 27 18 230 18 207 0
221 -1 214 -17z m-1225 -2213 l0 -330 -40 0 -40 0 0 330 0 330 40 0 40 0 0
-330z m-2155 -275 c66 -259 298 -482 563 -540 42 -10 82 -19 88 -20 6 -2 15
-21 19 -42 11 -61 63 -148 121 -203 166 -157 417 -160 591 -7 48 43 99 123
120 191 l17 56 82 0 82 0 17 -52 c59 -186 224 -308 415 -308 191 0 356 122
415 308 l17 52 83 0 83 0 7 -32 c4 -18 18 -56 31 -83 97 -208 361 -304 569
-206 116 54 221 178 240 284 4 21 13 40 19 42 6 1 46 10 90 20 153 34 332 146
422 266 90 119 136 230 157 376 l12 84 64 -88 c74 -101 117 -190 156 -316 l27
-89 -27 -86 c-116 -376 -438 -643 -835 -692 -116 -14 -2944 -14 -3060 0 -399
49 -719 314 -836 694 l-27 88 17 72 c23 98 94 242 168 343 l63 84 8 -68 c4
-37 14 -95 22 -128z m1175 -221 c78 -23 162 -109 185 -189 52 -176 -67 -348
-251 -363 -89 -7 -155 18 -220 82 -149 150 -92 398 108 467 66 23 109 24 178
3z m1068 -18 c98 -49 152 -139 152 -251 0 -85 -23 -142 -83 -203 -135 -138
-375 -92 -456 88 -27 59 -28 169 -2 226 36 80 111 143 196 165 50 13 141 1
193 -25z m979 19 c151 -45 234 -203 189 -360 -23 -77 -98 -154 -175 -180 -135
-45 -286 16 -346 139 -35 72 -42 138 -20 211 13 46 28 70 74 116 84 83 169
106 278 74z"/>
<path d="M1475 1251 c-48 -29 -67 -57 -72 -104 -17 -147 178 -205 247 -73 38
70 8 151 -66 182 -45 19 -73 18 -109 -5z m75 -122 c0 -5 -7 -9 -15 -9 -15 0
-20 12 -9 23 8 8 24 -1 24 -14z"/>
<path d="M2503 1255 c-68 -29 -97 -141 -52 -199 80 -102 239 -54 239 73 0 58
-29 107 -75 127 -43 17 -71 17 -112 -1z m67 -120 c0 -8 -4 -15 -10 -15 -5 0
-10 7 -10 15 0 8 5 15 10 15 6 0 10 -7 10 -15z"/>
<path d="M3534 1256 c-40 -18 -72 -59 -80 -104 -5 -27 -2 -46 16 -78 69 -132
264 -74 247 73 -5 47 -32 85 -79 109 -33 17 -64 17 -104 0z m66 -127 c0 -5 -7
-9 -15 -9 -15 0 -20 12 -9 23 8 8 24 -1 24 -14z"/>
</g>
</svg>
