<svg id="visual" viewBox="0 0 960 540" width="960" height="540" xmlns="http://www.w3.org/2000/svg" xmlns:xlink="http://www.w3.org/1999/xlink" version="1.1"><rect x="0" y="0" width="960" height="540" fill="#0f0f0f"></rect><path d="M0 92L12.3 91.7C24.7 91.3 49.3 90.7 74 90.5C98.7 90.3 123.3 90.7 148 88C172.7 85.3 197.3 79.7 221.8 75.2C246.3 70.7 270.7 67.3 295.2 69.7C319.7 72 344.3 80 369 84.3C393.7 88.7 418.3 89.3 443 86.5C467.7 83.7 492.3 77.3 517 73.7C541.7 70 566.3 69 591 70.2C615.7 71.3 640.3 74.7 664.8 74.5C689.3 74.3 713.7 70.7 738.2 71.3C762.7 72 787.3 77 812 81.5C836.7 86 861.3 90 886 87.5C910.7 85 935.3 76 947.7 71.5L960 67L960 0L947.7 0C935.3 0 910.7 0 886 0C861.3 0 836.7 0 812 0C787.3 0 762.7 0 738.2 0C713.7 0 689.3 0 664.8 0C640.3 0 615.7 0 591 0C566.3 0 541.7 0 517 0C492.3 0 467.7 0 443 0C418.3 0 393.7 0 369 0C344.3 0 319.7 0 295.2 0C270.7 0 246.3 0 221.8 0C197.3 0 172.7 0 148 0C123.3 0 98.7 0 74 0C49.3 0 24.7 0 12.3 0L0 0Z" fill="#6b40c1"></path><path d="M0 71L12.3 67.2C24.7 63.3 49.3 55.7 74 51.8C98.7 48 123.3 48 148 52.2C172.7 56.3 197.3 64.7 221.8 68.7C246.3 72.7 270.7 72.3 295.2 70.2C319.7 68 344.3 64 369 60.2C393.7 56.3 418.3 52.7 443 52.8C467.7 53 492.3 57 517 60.8C541.7 64.7 566.3 68.3 591 68C615.7 67.7 640.3 63.3 664.8 60.8C689.3 58.3 713.7 57.7 738.2 56.8C762.7 56 787.3 55 812 55.5C836.7 56 861.3 58 886 61.5C910.7 65 935.3 70 947.7 72.5L960 75L960 0L947.7 0C935.3 0 910.7 0 886 0C861.3 0 836.7 0 812 0C787.3 0 762.7 0 738.2 0C713.7 0 689.3 0 664.8 0C640.3 0 615.7 0 591 0C566.3 0 541.7 0 517 0C492.3 0 467.7 0 443 0C418.3 0 393.7 0 369 0C344.3 0 319.7 0 295.2 0C270.7 0 246.3 0 221.8 0C197.3 0 172.7 0 148 0C123.3 0 98.7 0 74 0C49.3 0 24.7 0 12.3 0L0 0Z" fill="#2a71da"></path><path d="M0 38L12.3 38.8C24.7 39.7 49.3 41.3 74 43.7C98.7 46 123.3 49 148 49.7C172.7 50.3 197.3 48.7 221.8 49.5C246.3 50.3 270.7 53.7 295.2 54.8C319.7 56 344.3 55 369 55.7C393.7 56.3 418.3 58.7 443 59.8C467.7 61 492.3 61 517 57.7C541.7 54.3 566.3 47.7 591 46.7C615.7 45.7 640.3 50.3 664.8 50.2C689.3 50 713.7 45 738.2 42C762.7 39 787.3 38 812 38.5C836.7 39 861.3 41 886 41.5C910.7 42 935.3 41 947.7 40.5L960 40L960 0L947.7 0C935.3 0 910.7 0 886 0C861.3 0 836.7 0 812 0C787.3 0 762.7 0 738.2 0C713.7 0 689.3 0 664.8 0C640.3 0 615.7 0 591 0C566.3 0 541.7 0 517 0C492.3 0 467.7 0 443 0C418.3 0 393.7 0 369 0C344.3 0 319.7 0 295.2 0C270.7 0 246.3 0 221.8 0C197.3 0 172.7 0 148 0C123.3 0 98.7 0 74 0C49.3 0 24.7 0 12.3 0L0 0Z" fill="#0095de"></path><path d="M0 44L12.3 42.3C24.7 40.7 49.3 37.3 74 35.5C98.7 33.7 123.3 33.3 148 33.5C172.7 33.7 197.3 34.3 221.8 32.7C246.3 31 270.7 27 295.2 25C319.7 23 344.3 23 369 24.3C393.7 25.7 418.3 28.3 443 28.5C467.7 28.7 492.3 26.3 517 28.2C541.7 30 566.3 36 591 38C615.7 40 640.3 38 664.8 37.2C689.3 36.3 713.7 36.7 738.2 34.5C762.7 32.3 787.3 27.7 812 27.5C836.7 27.3 861.3 31.7 886 33.8C910.7 36 935.3 36 947.7 36L960 36L960 0L947.7 0C935.3 0 910.7 0 886 0C861.3 0 836.7 0 812 0C787.3 0 762.7 0 738.2 0C713.7 0 689.3 0 664.8 0C640.3 0 615.7 0 591 0C566.3 0 541.7 0 517 0C492.3 0 467.7 0 443 0C418.3 0 393.7 0 369 0C344.3 0 319.7 0 295.2 0C270.7 0 246.3 0 221.8 0C197.3 0 172.7 0 148 0C123.3 0 98.7 0 74 0C49.3 0 24.7 0 12.3 0L0 0Z" fill="#00afcf"></path><path d="M0 22L12.3 22.8C24.7 23.7 49.3 25.3 74 24.7C98.7 24 123.3 21 148 19.7C172.7 18.3 197.3 18.7 221.8 17C246.3 15.3 270.7 11.7 295.2 10.7C319.7 9.7 344.3 11.3 369 13C393.7 14.7 418.3 16.3 443 17C467.7 17.7 492.3 17.3 517 16.7C541.7 16 566.3 15 591 14.5C615.7 14 640.3 14 664.8 13.7C689.3 13.3 713.7 12.7 738.2 14.8C762.7 17 787.3 22 812 23.2C836.7 24.3 861.3 21.7 886 21.5C910.7 21.3 935.3 23.7 947.7 24.8L960 26L960 0L947.7 0C935.3 0 910.7 0 886 0C861.3 0 836.7 0 812 0C787.3 0 762.7 0 738.2 0C713.7 0 689.3 0 664.8 0C640.3 0 615.7 0 591 0C566.3 0 541.7 0 517 0C492.3 0 467.7 0 443 0C418.3 0 393.7 0 369 0C344.3 0 319.7 0 295.2 0C270.7 0 246.3 0 221.8 0C197.3 0 172.7 0 148 0C123.3 0 98.7 0 74 0C49.3 0 24.7 0 12.3 0L0 0Z" fill="#40c1ac"></path></svg>