<svg id="visual" viewBox="0 0 900 600" width="900" height="600" xmlns="http://www.w3.org/2000/svg" xmlns:xlink="http://www.w3.org/1999/xlink" version="1.1"><rect x="0" y="0" width="900" height="600" fill="#0f0f0f"></rect><path d="M0 102L11.5 101.7C23 101.3 46 100.7 69 100.5C92 100.3 115 100.7 138.2 97.7C161.3 94.7 184.7 88.3 207.8 83.3C231 78.3 254 74.7 277 77.3C300 80 323 89 346 94C369 99 392 100 415.2 96.8C438.3 93.7 461.7 86.3 484.8 82C508 77.7 531 76.3 554 77.7C577 79 600 83 623 82.8C646 82.7 669 78.3 692.2 79.2C715.3 80 738.7 86 761.8 91C785 96 808 100 831 97.2C854 94.3 877 84.7 888.5 79.8L900 75L900 0L888.5 0C877 0 854 0 831 0C808 0 785 0 761.8 0C738.7 0 715.3 0 692.2 0C669 0 646 0 623 0C600 0 577 0 554 0C531 0 508 0 484.8 0C461.7 0 438.3 0 415.2 0C392 0 369 0 346 0C323 0 300 0 277 0C254 0 231 0 207.8 0C184.7 0 161.3 0 138.2 0C115 0 92 0 69 0C46 0 23 0 11.5 0L0 0Z" fill="#6b40c1"></path><path d="M0 79L11.5 74.7C23 70.3 46 61.7 69 57.5C92 53.3 115 53.7 138.2 58.3C161.3 63 184.7 72 207.8 76.3C231 80.7 254 80.3 277 78C300 75.7 323 71.3 346 67C369 62.7 392 58.3 415.2 58.5C438.3 58.7 461.7 63.3 484.8 67.7C508 72 531 76 554 75.7C577 75.3 600 70.7 623 67.8C646 65 669 64 692.2 63C715.3 62 738.7 61 761.8 61.7C785 62.3 808 64.7 831 68.7C854 72.7 877 78.3 888.5 81.2L900 84L900 0L888.5 0C877 0 854 0 831 0C808 0 785 0 761.8 0C738.7 0 715.3 0 692.2 0C669 0 646 0 623 0C600 0 577 0 554 0C531 0 508 0 484.8 0C461.7 0 438.3 0 415.2 0C392 0 369 0 346 0C323 0 300 0 277 0C254 0 231 0 207.8 0C184.7 0 161.3 0 138.2 0C115 0 92 0 69 0C46 0 23 0 11.5 0L0 0Z" fill="#2a71da"></path><path d="M0 42L11.5 43C23 44 46 46 69 48.7C92 51.3 115 54.7 138.2 55.3C161.3 56 184.7 54 207.8 55C231 56 254 60 277 61.3C300 62.7 323 61.3 346 62C369 62.7 392 65.3 415.2 66.7C438.3 68 461.7 68 484.8 64.2C508 60.3 531 52.7 554 51.7C577 50.7 600 56.3 623 56.3C646 56.3 669 50.7 692.2 47.2C715.3 43.7 738.7 42.3 761.8 42.8C785 43.3 808 45.7 831 46.3C854 47 877 46 888.5 45.5L900 45L900 0L888.5 0C877 0 854 0 831 0C808 0 785 0 761.8 0C738.7 0 715.3 0 692.2 0C669 0 646 0 623 0C600 0 577 0 554 0C531 0 508 0 484.8 0C461.7 0 438.3 0 415.2 0C392 0 369 0 346 0C323 0 300 0 277 0C254 0 231 0 207.8 0C184.7 0 161.3 0 138.2 0C115 0 92 0 69 0C46 0 23 0 11.5 0L0 0Z" fill="#0095de"></path><path d="M0 49L11.5 47C23 45 46 41 69 39C92 37 115 37 138.2 37.2C161.3 37.3 184.7 37.7 207.8 35.8C231 34 254 30 277 28C300 26 323 26 346 27.3C369 28.7 392 31.3 415.2 31.5C438.3 31.7 461.7 29.3 484.8 31.5C508 33.7 531 40.3 554 42.5C577 44.7 600 42.3 623 41.3C646 40.3 669 40.7 692.2 38.3C715.3 36 738.7 31 761.8 30.8C785 30.7 808 35.3 831 37.7C854 40 877 40 888.5 40L900 40L900 0L888.5 0C877 0 854 0 831 0C808 0 785 0 761.8 0C738.7 0 715.3 0 692.2 0C669 0 646 0 623 0C600 0 577 0 554 0C531 0 508 0 484.8 0C461.7 0 438.3 0 415.2 0C392 0 369 0 346 0C323 0 300 0 277 0C254 0 231 0 207.8 0C184.7 0 161.3 0 138.2 0C115 0 92 0 69 0C46 0 23 0 11.5 0L0 0Z" fill="#00afcf"></path><path d="M0 25L11.5 25.8C23 26.7 46 28.3 69 27.7C92 27 115 24 138.2 22.5C161.3 21 184.7 21 207.8 19C231 17 254 13 277 11.8C300 10.7 323 12.3 346 14.3C369 16.3 392 18.7 415.2 19.5C438.3 20.3 461.7 19.7 484.8 18.8C508 18 531 17 554 16.5C577 16 600 16 623 15.7C646 15.3 669 14.7 692.2 17C715.3 19.3 738.7 24.7 761.8 25.8C785 27 808 24 831 23.8C854 23.7 877 26.3 888.5 27.7L900 29L900 0L888.5 0C877 0 854 0 831 0C808 0 785 0 761.8 0C738.7 0 715.3 0 692.2 0C669 0 646 0 623 0C600 0 577 0 554 0C531 0 508 0 484.8 0C461.7 0 438.3 0 415.2 0C392 0 369 0 346 0C323 0 300 0 277 0C254 0 231 0 207.8 0C184.7 0 161.3 0 138.2 0C115 0 92 0 69 0C46 0 23 0 11.5 0L0 0Z" fill="#40c1ac"></path></svg>