<svg id="visual" viewBox="0 0 900 600" width="900" height="600" xmlns="http://www.w3.org/2000/svg" xmlns:xlink="http://www.w3.org/1999/xlink" version="1.1"><path d="M476 600L489.5 588.8C503 577.7 530 555.3 518 533.2C506 511 455 489 480.5 466.8C506 444.7 608 422.3 624.5 400C641 377.7 572 355.3 576.5 333.2C581 311 659 289 690.5 266.8C722 244.7 707 222.3 695 200C683 177.7 674 155.3 687.5 133.2C701 111 737 89 714.5 66.8C692 44.7 611 22.3 570.5 11.2L530 0L900 0L900 11.2C900 22.3 900 44.7 900 66.8C900 89 900 111 900 133.2C900 155.3 900 177.7 900 200C900 222.3 900 244.7 900 266.8C900 289 900 311 900 333.2C900 355.3 900 377.7 900 400C900 422.3 900 444.7 900 466.8C900 489 900 511 900 533.2C900 555.3 900 577.7 900 588.8L900 600Z" fill="#40c1ac"></path><path d="M422 600L423.5 588.8C425 577.7 428 555.3 399.5 533.2C371 511 311 489 339.5 466.8C368 444.7 485 422.3 509 400C533 377.7 464 355.3 447.5 333.2C431 311 467 289 479 266.8C491 244.7 479 222.3 456.5 200C434 177.7 401 155.3 413 133.2C425 111 482 89 464 66.8C446 44.7 353 22.3 306.5 11.2L260 0L531 0L571.5 11.2C612 22.3 693 44.7 715.5 66.8C738 89 702 111 688.5 133.2C675 155.3 684 177.7 696 200C708 222.3 723 244.7 691.5 266.8C660 289 582 311 577.5 333.2C573 355.3 642 377.7 625.5 400C609 422.3 507 444.7 481.5 466.8C456 489 507 511 519 533.2C531 555.3 504 577.7 490.5 588.8L477 600Z" fill="#0084de"></path><path d="M323 600L312.5 588.8C302 577.7 281 555.3 264.5 533.2C248 511 236 489 284 466.8C332 444.7 440 422.3 456.5 400C473 377.7 398 355.3 377 333.2C356 311 389 289 401 266.8C413 244.7 404 222.3 372.5 200C341 177.7 287 155.3 285.5 133.2C284 111 335 89 335 66.8C335 44.7 284 22.3 258.5 11.2L233 0L261 0L307.5 11.2C354 22.3 447 44.7 465 66.8C483 89 426 111 414 133.2C402 155.3 435 177.7 457.5 200C480 222.3 492 244.7 480 266.8C468 289 432 311 448.5 333.2C465 355.3 534 377.7 510 400C486 422.3 369 444.7 340.5 466.8C312 489 372 511 400.5 533.2C429 555.3 426 577.7 424.5 588.8L423 600Z" fill="#6b40c1"></path><path d="M287 600L255.5 588.8C224 577.7 161 555.3 131 533.2C101 511 104 489 158 466.8C212 444.7 317 422.3 318.5 400C320 377.7 218 355.3 209 333.2C200 311 284 289 294.5 266.8C305 244.7 242 222.3 212 200C182 177.7 185 155.3 192.5 133.2C200 111 212 89 212 66.8C212 44.7 200 22.3 194 11.2L188 0L234 0L259.5 11.2C285 22.3 336 44.7 336 66.8C336 89 285 111 286.5 133.2C288 155.3 342 177.7 373.5 200C405 222.3 414 244.7 402 266.8C390 289 357 311 378 333.2C399 355.3 474 377.7 457.5 400C441 422.3 333 444.7 285 466.8C237 489 249 511 265.5 533.2C282 555.3 303 577.7 313.5 588.8L324 600Z" fill="#0084de"></path><path d="M0 600L0 588.8C0 577.7 0 555.3 0 533.2C0 511 0 489 0 466.8C0 444.7 0 422.3 0 400C0 377.7 0 355.3 0 333.2C0 311 0 289 0 266.8C0 244.7 0 222.3 0 200C0 177.7 0 155.3 0 133.2C0 111 0 89 0 66.8C0 44.7 0 22.3 0 11.2L0 0L189 0L195 11.2C201 22.3 213 44.7 213 66.8C213 89 201 111 193.5 133.2C186 155.3 183 177.7 213 200C243 222.3 306 244.7 295.5 266.8C285 289 201 311 210 333.2C219 355.3 321 377.7 319.5 400C318 422.3 213 444.7 159 466.8C105 489 102 511 132 533.2C162 555.3 225 577.7 256.5 588.8L288 600Z" fill="#40c1ac"></path></svg>